<svg xmlns="http://www.w3.org/2000/svg" viewBox="0 0 24 24" fill="#0056b3">
  <path d="M12 2C8.14 2 5 5.14 5 9c0 5.25 7 13 7 13s7-7.75 7-13c0-3.86-3.14-7-7-7zm0 8.5c-1.38 0-2.5-1.12-2.5-2.5S10.62 5.5 12 5.5s2.5 1.12 2.5 2.5S13.38 10.5 12 10.5zM12 14c-1.93 0-3.5-1.57-3.5-3.5S10.07 7 12 7s3.5 1.57 3.5 3.5S13.93 14 12 14z"/>
  <path d="M13.22 7.78c.43-.43 1.14-.43 1.56 0 .44.43.44 1.13 0 1.56-.43.44-1.13.44-1.56 0-.44-.43-.44-1.13 0-1.56zm-2.44 0c-.43-.43-1.14-.43-1.56 0-.44.43-.44 1.13 0 1.56.43.44 1.13.44 1.56 0 .44-.43.44-1.13 0-1.56z"/>
</svg> 